<?xml version="1.0" encoding="utf-8"?>
<!DOCTYPE svg PUBLIC "-//W3C//DTD SVG 1.1//EN" "http://www.w3.org/Graphics/SVG/1.1/DTD/svg11.dtd">
<svg class="icon" xmlns="http://www.w3.org/2000/svg" xmlns:xlink="http://www.w3.org/1999/xlink" viewBox="0 0 500 499.9" xml:space="preserve">
	<defs>
		<style type="text/css">
			.icon{
				fill:#FFFFFF;
				opacity: .07;
			}
		</style>
	</defs>
	<title>Smithsonian Sun Logo</title>
	<desc>Smithsonian Sun Logo</desc>
	<path d="M190.8,426.3c32.5-19,32.9-48.9,32.8-52.5c0,0,0.1,0,0.1,0L250,499.9l26.3-126.1v0c1.2,1.3,22.9,25.8,23.4,62.6
		c0.4,27.8,34.4,51.8,60.5,36.5c0,0-41-4.6-27.3-56.3c9.6-36.4-11.3-57.8-14-60.4h0l107.8,70.6l-70.6-107.8v0
		c1.6,0.1,34.3,2.1,60.9,27.7c19.9,19.4,60.9,12.3,68.5-17c0,0-32.3,25.8-59.2-20.5c-19-32.5-48.9-32.9-52.5-32.8c0,0,0,0,0-0.1
		L500,250l-126.2-26.3v-0.1c1.2-1.1,25.7-22.8,62.6-23.4c27.7-0.4,51.8-34.4,36.4-60.5c0,0-4.6,41-56.4,27.4
		c-36.4-9.6-57.9,11.4-60.3,14c0,0,0,0,0,0l70.6-107.8l-87.9,57.6l-20,13.1c0,0,0,0,0,0c0.1-1,1.8-34.2,27.7-60.8
		C366,63,359,22,329.7,14.4c0,0,25.8,32.2-20.5,59.2c-32.6,19-32.9,49-32.8,52.5h-0.1L250,0l-26.3,126.1
		c-0.8-0.8-22.9-25.5-23.4-62.6c-0.5-27.7-34.4-51.8-60.5-36.5c0,0,41,4.5,27.4,56.3c-9.6,36.6,11.5,58,14,60.4c0,0,0,0.1-0.1,0.1
		L73.2,73.2L143.8,181c-1.1-0.1-34.1-1.9-60.8-27.7c-20-19.3-61-12.3-68.6,17c0,0,32.2-25.7,59.2,20.6c19,32.6,49.1,32.9,52.6,32.8
		c0,0,0,0.1,0,0.1L0,250l126.2,26.3c-1.1,1-25.7,22.9-62.7,23.4c-27.8,0.4-51.8,34.4-36.5,60.5c0,0,4.6-41,56.3-27.3
		c36.5,9.6,57.9-11.4,60.4-14c0,0.1,0,0.1,0,0.1L73.3,426.7l56.9-37.3l50.9-33.4c-0.1,1.5-2,34.3-27.7,60.8
		c-19.4,19.9-12.3,60.9,17,68.6C170.3,485.5,144.5,453.2,190.8,426.3"/>
</svg>
